<svg viewBox="0 0 60 60" xmlns="http://www.w3.org/2000/svg">
    <path d="m59.03 60h-58c-.552 0-1-.448-1-1v-38c0-.552.448-1 1-1h58c.552 0 1 .448 1 1v38c0 .552-.447 1-1 1zm-57-2h56v-36h-56z" />
    <path d="m52.03 22h-44c-.552 0-1-.448-1-1v-4c0-.552.448-1 1-1h44c.552 0 1 .448 1 1v4c0 .552-.447 1-1 1zm-43-2h42v-2h-42z" />
    <path d="m48.03 18h-36c-.552 0-1-.448-1-1v-4c0-.552.448-1 1-1h36c.552 0 1 .448 1 1v4c0 .552-.447 1-1 1zm-35-2h34v-2h-34z" />
    <path d="m46.03 14h-32c-.552 0-1-.448-1-1v-4c0-.552.448-1 1-1h32c.552 0 1 .448 1 1v4c0 .552-.447 1-1 1zm-31-2h30v-2h-30z" />
    <path d="m37.03 36h-14c-2.206 0-4-1.794-4-4s1.794-4 4-4h14c2.206 0 4 1.794 4 4s-1.794 4-4 4zm-14-6c-1.103 0-2 .897-2 2s.897 2 2 2h14c1.103 0 2-.897 2-2s-.897-2-2-2z" />
    <path d="m59.03 22h-58c-.332 0-.642-.165-.828-.439s-.224-.624-.101-.932l8-20c.151-.379.52-.628.929-.628h42c.409 0 .776.249.928.628l8 20c.124.308.086.657-.1.932s-.496.439-.828.439zm-56.523-2h55.046l-7.2-18h-40.646z" />
</svg>