<svg xmlns="http://www.w3.org/2000/svg" viewBox="0 100 512 512" style="enable-background:new 0 0 512 512;" xml:space="preserve">

    <path d="M105.705,241.468H45.586c-8.3,0-15.03,6.729-15.03,15.03V496.97c0,8.3,6.729,15.03,15.03,15.03h60.118
        c8.3,0,15.03-6.729,15.03-15.03V256.497C120.734,248.197,114.006,241.468,105.705,241.468z" />

    <path d="M481.145,281.308c-2.651-23.315-24.43-39.84-47.895-39.84H316.075c9.958-17.831,15.303-68.264,15.066-88.866
        c-0.393-34.102-28.634-61.43-62.737-61.43h-12.402c-8.307,0-15.03,6.722-15.03,15.03c0,34.755-13.533,97.487-39.056,123.011
        c-17.179,17.179-31.865,23.404-51.122,33.028v225.518c29.483,9.827,66.917,24.242,123.974,24.242h98.316
        c32.395,0,57.625-30.003,45.072-61.703c19.125-5.21,33.229-22.75,33.229-43.504c0-5.857-1.13-11.463-3.17-16.615
        c32.229-8.781,44.092-48.576,21.723-73.563C478.156,307.435,482.688,294.877,481.145,281.308z" />

</svg>